<svg width="70" height="70" viewBox="0 0 70 70" fill="none" xmlns="http://www.w3.org/2000/svg">
  <path d="M47.6 4.2002H22.4C12.362 4.2002 4.2 12.3622 4.2 22.4002V47.6002C4.2 57.6382 12.362 65.8002 22.4 65.8002H47.6C57.638 65.8002 65.8 57.6382 65.8 47.6002V22.4002C65.8 12.3622 57.638 4.2002 47.6 4.2002ZM35 50.4002C26.502 50.4002 19.6 43.4982 19.6 35.0002C19.6 26.5022 26.502 19.6002 35 19.6002C43.498 19.6002 50.4 26.5022 50.4 35.0002C50.4 43.4982 43.498 50.4002 35 50.4002ZM51.8 21.0002C50.26 21.0002 49 19.7402 49 18.2002C49 16.6602 50.26 15.4002 51.8 15.4002C53.34 15.4002 54.6 16.6602 54.6 18.2002C54.6 19.7402 53.34 21.0002 51.8 21.0002Z" fill="#F65A4C"/>
  <path d="M47.6 34.9999C47.6 41.9439 41.944 47.5999 35 47.5999C28.056 47.5999 22.4 41.9439 22.4 34.9999C22.4 28.0559 28.056 22.3999 35 22.3999C41.944 22.3999 47.6 28.0559 47.6 34.9999Z" fill="#F65A4C"/>
</svg>
