<svg width="80" height="80" viewBox="0 0 80 80" fill="none" xmlns="http://www.w3.org/2000/svg">
  <path d="M40 7.5C22.0512 7.5 7.5 22.0512 7.5 40C7.5 57.9487 22.0512 72.5 40 72.5C57.9487 72.5 72.5 57.9487 72.5 40C72.5 22.0512 57.9487 7.5 40 7.5ZM31.25 55H25V32.5H31.25V55ZM28.1063 30H28.0713C26.2063 30 25 28.61 25 26.8738C25 25.1 26.2437 23.75 28.1425 23.75C30.0438 23.75 31.215 25.1 31.25 26.8738C31.25 28.6088 30.0438 30 28.1063 30ZM55 55H48.75V43.75C48.75 40 46.9425 38.75 45 38.75C43.1937 38.75 41.25 40 41.25 43.75V55H35V32.5H41.25V36.25C41.6787 35.0238 43.73 32.5 47.5 32.5C52.5 32.5 55 36.25 55 42.5V55Z" fill="#F65A4C"/>
</svg>
