<svg width="24" height="24" viewBox="0 0 24 24" fill="none" xmlns="http://www.w3.org/2000/svg">
    <g clip-path="url(#clip0_77_318)">
        <path d="M6.70704 22.5842C4.61133 21.9123 3.125 20.9636 2.04688 19.5376C0.968753 18.1115 0.359378 16.2463 3.32063e-06 13.697C-0.00787464 13.6526 -0.00787464 13.6071 3.3211e-06 13.5627C-0.000405011 12.7352 0.284691 11.9343 0.804691 11.3023C1.19532 10.8109 1.75196 10.4599 2.5 10.1871C2.55193 9.66035 2.7732 9.16636 3.12891 8.78311C3.54561 8.34543 4.08759 8.05591 4.67579 7.95677C5.44222 7.17836 6.41148 6.64412 7.4668 6.41841C8.59147 6.16219 9.76433 6.24578 10.8438 6.6591C10.9121 6.68718 11.1348 6.8015 11.3359 6.9058C11.363 6.91829 11.3865 6.93761 11.4043 6.96195C12.063 6.43149 12.8547 6.1039 13.6875 6.01728C14.243 5.95843 14.8042 5.99984 15.3457 6.13962L17.9883 0.70623C18.2285 0.224866 18.6133 -0.236441 19.3555 0.136616C19.5549 0.234192 19.7249 0.385256 19.8477 0.573855C20.1875 1.10737 19.9023 1.47842 19.6523 1.93772L16.7852 6.81955C17.0007 6.97407 17.1974 7.15453 17.3711 7.35707L17.3926 7.38315C17.6688 7.70448 17.8663 8.08885 17.9688 8.50432C18.2188 8.57653 18.459 8.65876 18.6856 8.74701L22.0059 3.0589C22.2832 2.59959 22.7012 2.17238 23.416 2.60361C23.607 2.7181 23.7648 2.8829 23.8731 3.08096C24.168 3.64054 23.8574 3.98753 23.5645 4.42276L20.0938 9.50516C20.4163 9.7348 20.7102 10.0042 20.9688 10.3074C21.3382 10.7192 21.6055 11.2165 21.748 11.757C21.8904 12.2975 21.9039 12.8653 21.7871 13.4122C21.78 13.4447 21.7695 13.4763 21.7559 13.5065C21.7699 13.5498 21.7772 13.5952 21.7773 13.6409C21.7783 13.6589 21.7783 13.677 21.7773 13.695C21.6958 15.7432 20.9693 17.7089 19.707 19.2969C18.5586 20.7009 16.8809 21.8802 14.5293 22.5983H14.5176V23.8277C14.5176 23.8735 14.4999 23.9174 14.4684 23.9497C14.4369 23.9821 14.3942 24.0002 14.3496 24.0002H6.9375C6.88034 24.0002 6.82549 23.977 6.78489 23.9357C6.74429 23.8944 6.72122 23.8383 6.72071 23.7796V22.5902H6.70704V22.5842ZM16.0508 12.3131C15.9384 12.3131 15.8306 12.2673 15.7511 12.1856C15.6716 12.104 15.627 11.9933 15.627 11.8779C15.627 11.7625 15.6716 11.6517 15.7511 11.5701C15.8306 11.4885 15.9384 11.4426 16.0508 11.4426H17.0547C17.1671 11.4426 17.2749 11.4885 17.3544 11.5701C17.4339 11.6517 17.4785 11.7625 17.4785 11.8779C17.4785 11.9933 17.4339 12.104 17.3544 12.1856C17.2749 12.2673 17.1671 12.3131 17.0547 12.3131H16.0508ZM15.7969 9.30459C15.8475 9.32777 15.8933 9.36097 15.9314 9.40229C15.9696 9.44361 15.9994 9.49224 16.0193 9.54542C16.0392 9.59859 16.0486 9.65526 16.0472 9.71219C16.0457 9.76912 16.0333 9.82519 16.0107 9.87721C15.9882 9.92923 15.9558 9.97618 15.9156 10.0154C15.8754 10.0546 15.828 10.0852 15.7762 10.1056C15.7245 10.126 15.6693 10.1357 15.6138 10.1342C15.5584 10.1327 15.5038 10.12 15.4531 10.0968L14.5371 9.67364C14.4865 9.65046 14.4407 9.61726 14.4026 9.57594C14.3644 9.53462 14.3346 9.48598 14.3147 9.43281C14.2746 9.32542 14.2777 9.20607 14.3232 9.10101C14.3688 8.99596 14.4532 8.9138 14.5578 8.87261C14.6623 8.83142 14.7786 8.83458 14.8809 8.88139L15.7969 9.30459ZM10.7188 9.56332C10.665 9.54382 10.6157 9.51333 10.5737 9.47371C10.5318 9.43408 10.4981 9.38613 10.4746 9.33275C10.4512 9.27938 10.4386 9.22168 10.4375 9.16316C10.4364 9.10463 10.4469 9.04648 10.4683 8.99222C10.4897 8.93797 10.5216 8.88873 10.562 8.84747C10.6025 8.80622 10.6506 8.77381 10.7036 8.75221C10.7566 8.7306 10.8133 8.72025 10.8703 8.72177C10.9273 8.72329 10.9833 8.73665 11.0352 8.76105L12.041 9.18224C12.0932 9.20303 12.1409 9.23429 12.1813 9.2742C12.2216 9.31411 12.2538 9.36186 12.276 9.41468C12.2981 9.4675 12.3098 9.52432 12.3104 9.58184C12.311 9.63935 12.3004 9.69641 12.2792 9.74967C12.2581 9.80294 12.2268 9.85135 12.1873 9.89208C12.1477 9.93281 12.1007 9.96505 12.0489 9.98691C11.9971 10.0088 11.9415 10.0198 11.8855 10.0194C11.8295 10.019 11.7742 10.0071 11.7227 9.98452L10.7188 9.56332ZM10.3516 12.3131C10.2392 12.3131 10.1314 12.2673 10.0519 12.1856C9.97239 12.104 9.92774 11.9933 9.92774 11.8779C9.92774 11.7625 9.97239 11.6517 10.0519 11.5701C10.1314 11.4885 10.2392 11.4426 10.3516 11.4426H11.3555C11.4679 11.4426 11.5757 11.4885 11.6552 11.5701C11.7346 11.6517 11.7793 11.7625 11.7793 11.8779C11.7793 11.9933 11.7346 12.104 11.6552 12.1856C11.5757 12.2673 11.4679 12.3131 11.3555 12.3131H10.3516ZM6.9336 10.2292C6.83 10.276 6.71253 10.2787 6.60704 10.2365C6.50155 10.1944 6.41668 10.111 6.3711 10.0046C6.32551 9.89819 6.32295 9.77756 6.36398 9.66923C6.405 9.5609 6.48625 9.47375 6.58985 9.42694L7.50586 9.00374C7.55682 8.97735 7.61246 8.96185 7.66942 8.95818C7.72638 8.95451 7.78347 8.96274 7.83724 8.98239C7.89101 9.00203 7.94034 9.03267 7.98224 9.07246C8.02414 9.11225 8.05775 9.16035 8.08103 9.21386C8.1043 9.26737 8.11677 9.32517 8.11766 9.38377C8.11855 9.44237 8.10786 9.50055 8.08623 9.55478C8.06459 9.60901 8.03247 9.65817 7.9918 9.69929C7.95113 9.7404 7.90276 9.77262 7.84961 9.79398L6.9336 10.2292ZM4.96485 12.3131C4.85244 12.3131 4.74464 12.2673 4.66516 12.1856C4.58567 12.104 4.54102 11.9933 4.54102 11.8779C4.54102 11.7625 4.58567 11.6517 4.66516 11.5701C4.74464 11.4885 4.85244 11.4426 4.96485 11.4426H5.97071C6.08311 11.4426 6.19092 11.4885 6.2704 11.5701C6.34988 11.6517 6.39454 11.7625 6.39454 11.8779C6.39454 11.9933 6.34988 12.104 6.2704 12.1856C6.19092 12.2673 6.08311 12.3131 5.97071 12.3131H4.96485ZM1.00586 13.2377H20.9609C21.0473 12.8225 21.0349 12.3921 20.9248 11.9829C20.8146 11.5736 20.6099 11.1977 20.3281 10.8871C19.7422 10.1871 18.7793 9.61547 17.4941 9.28253C17.4095 9.26115 17.3333 9.21347 17.2759 9.14599C17.2186 9.07851 17.183 8.99452 17.1738 8.90546C17.1324 8.55057 16.9858 8.21731 16.7539 7.95076L16.7344 7.9307C16.391 7.54778 15.958 7.26128 15.4766 7.09834C14.9293 6.90458 14.3473 6.83612 13.7715 6.89777C13.0305 6.97121 12.3302 7.27964 11.7676 7.78027C11.6892 7.85694 11.5848 7.89936 11.4766 7.89861C11.2914 7.85742 11.1144 7.78417 10.9531 7.68199C10.7754 7.59174 10.5801 7.48143 10.5391 7.48143C9.61315 7.12655 8.60651 7.05685 7.64258 7.28086C6.7048 7.48161 5.849 7.97141 5.18946 8.68484C5.1213 8.76292 5.02734 8.81224 4.92578 8.82323C4.47705 8.8707 4.05815 9.07621 3.74024 9.40487C3.47308 9.69429 3.32297 10.0771 3.32032 10.4759C3.32694 10.5733 3.30146 10.6702 3.24796 10.751C3.19447 10.8318 3.11608 10.8917 3.02539 10.9212C2.29102 11.1558 1.77344 11.4447 1.45118 11.8498C1.16106 12.2511 1.00487 12.7379 1.00586 13.2377ZM18.8828 15.3036C18.8955 15.2636 18.9161 15.2268 18.9433 15.1954C18.9705 15.164 19.0037 15.1387 19.0409 15.1211C19.0781 15.1035 19.1184 15.094 19.1593 15.0932C19.2003 15.0924 19.2409 15.1003 19.2787 15.1163C19.3165 15.1324 19.3507 15.1564 19.3791 15.1867C19.4075 15.217 19.4294 15.253 19.4436 15.2924C19.4578 15.3318 19.4639 15.3739 19.4615 15.4158C19.4591 15.4578 19.4483 15.4988 19.4297 15.5362C19.286 15.9002 19.1244 16.2563 18.9453 16.6033C18.7671 16.9478 18.5715 17.2825 18.3594 17.6061C18.3391 17.6425 18.3116 17.6742 18.2788 17.6992C18.246 17.7242 18.2086 17.742 18.1688 17.7515C18.129 17.7609 18.0877 17.7619 18.0475 17.7542C18.0074 17.7465 17.9692 17.7304 17.9354 17.7069C17.9015 17.6834 17.8728 17.6529 17.851 17.6175C17.8291 17.582 17.8146 17.5423 17.8084 17.5008C17.8022 17.4594 17.8044 17.417 17.8148 17.3765C17.8253 17.3359 17.8438 17.298 17.8691 17.2651C18.0719 16.9584 18.259 16.6411 18.4297 16.3145C18.6016 15.9884 18.7574 15.6537 18.8965 15.3116L18.8828 15.3036ZM17.2481 18.0975C17.2999 18.0361 17.3733 17.9983 17.4522 17.9924C17.4913 17.9896 17.5306 17.9946 17.5678 18.0073C17.6049 18.02 17.6393 18.0401 17.6689 18.0664C17.6986 18.0928 17.7229 18.1248 17.7404 18.1608C17.758 18.1968 17.7684 18.236 17.7713 18.2761C17.7741 18.3162 17.7692 18.3565 17.7568 18.3947C17.7444 18.4329 17.7249 18.4682 17.6992 18.4986C17.5254 18.7112 17.3438 18.9138 17.1602 19.1003C16.9766 19.2869 16.7969 19.4554 16.6016 19.6198C16.5716 19.6462 16.5368 19.6662 16.4993 19.6787C16.4617 19.6912 16.4221 19.6961 16.3828 19.6929C16.3434 19.6897 16.3051 19.6786 16.2699 19.6603C16.2347 19.6419 16.2034 19.6165 16.1777 19.5857C16.1521 19.5549 16.1326 19.5192 16.1204 19.4806C16.1082 19.4421 16.1035 19.4015 16.1066 19.361C16.1096 19.3206 16.1205 19.2812 16.1384 19.2451C16.1563 19.209 16.1809 19.1768 16.2109 19.1505C16.3887 19.0001 16.5645 18.8356 16.7363 18.6611C16.9082 18.4866 17.0801 18.2921 17.2402 18.0975H17.2481ZM2.67188 19.0422C3.62891 20.3218 4.99219 21.1802 6.91211 21.8H14.3594C16.5078 21.1321 18.0508 20.0591 19.0957 18.7734C20.1701 17.4267 20.8188 15.7754 20.9551 14.04H0.855472C1.19922 16.2102 1.75782 17.8267 2.67188 19.0422Z" fill="#F65A4C"/>
    </g>
    <defs>
        <clipPath id="clip0_77_318">
            <rect width="24" height="24" fill="white"/>
        </clipPath>
    </defs>
</svg>
